<?xml version="1.0" encoding="UTF-8"?>
<!DOCTYPE svg PUBLIC "-//W3C//DTD SVG 1.1//EN" "http://www.w3.org/Graphics/SVG/1.1/DTD/svg11.dtd">
<svg xmlns="http://www.w3.org/2000/svg" version="1.1" width="160px" height="75px" style="shape-rendering:geometricPrecision; text-rendering:geometricPrecision; image-rendering:optimizeQuality; fill-rule:evenodd; clip-rule:evenodd" xmlns:xlink="http://www.w3.org/1999/xlink">
<g><path style="opacity:0.602" fill="#d500a1" d="M 11.5,-0.5 C 13.1667,-0.5 14.8333,-0.5 16.5,-0.5C 16.6107,0.117425 16.944,0.617425 17.5,1C 24.5,1.66667 31.5,1.66667 38.5,1C 39.056,0.617425 39.3893,0.117425 39.5,-0.5C 41.1667,-0.5 42.8333,-0.5 44.5,-0.5C 48.1296,3.63104 51.963,7.63104 56,11.5C 56.8061,16.0598 54.9727,19.2265 50.5,21C 49.1667,21.6667 47.8333,21.6667 46.5,21C 43.465,17.6298 40.1317,14.6298 36.5,12C 30.5,11.3333 24.5,11.3333 18.5,12C 15.2059,15.9738 11.3726,19.1405 7,21.5C 4.11415,20.4537 1.61415,18.7871 -0.5,16.5C -0.5,14.8333 -0.5,13.1667 -0.5,11.5C 3.83333,7.83333 7.83333,3.83333 11.5,-0.5 Z M 12.5,2.5 C 21.2924,4.54321 30.2924,5.04321 39.5,4C 40.1079,3.13008 40.9412,2.63008 42,2.5C 46.2717,5.71212 50.1051,9.37879 53.5,13.5C 52.1667,15.5 50.5,17.1667 48.5,18.5C 44.9809,15.1465 41.3142,11.9798 37.5,9C 30.8333,8.33333 24.1667,8.33333 17.5,9C 14.287,12.5494 10.787,15.7161 7,18.5C 4.88756,17.392 3.05423,15.892 1.5,14C 5.37046,10.2977 9.03713,6.46433 12.5,2.5 Z"/></g>
<g><path style="opacity:0.596" fill="#d500a1" d="M 27.5,14.5 C 34.0492,18.8816 39.3825,24.3816 43.5,31C 40.8272,38.1028 37.6605,38.2695 34,31.5C 33.6667,40.5 33.3333,49.5 33,58.5C 29.6667,63.8333 26.3333,63.8333 23,58.5C 22.6667,49.5 22.3333,40.5 22,31.5C 20.3163,33.3513 18.4829,35.018 16.5,36.5C 13.9537,35.4543 12.2871,33.6209 11.5,31C 16.3522,24.982 21.6855,19.482 27.5,14.5 Z M 26.5,18.5 C 32.1993,21.358 36.866,25.5247 40.5,31C 40.1501,32.2575 39.4835,32.5908 38.5,32C 35.9452,28.7407 32.9452,26.4074 29.5,25C 30.6529,35.7567 30.8196,46.59 30,57.5C 28.6667,60.1667 27.3333,60.1667 26,57.5C 25.6667,46.5 25.3333,35.5 25,24.5C 22.5,27 20,29.5 17.5,32C 16.2752,32.5628 15.2752,32.2295 14.5,31C 18.7036,26.9644 22.7036,22.7978 26.5,18.5 Z"/></g>
<g><path style="opacity:0.773" fill="#fefffe" d="M 60.5,18.5 C 65.5,18.5 70.5,18.5 75.5,18.5C 75.5,19.8333 75.5,21.1667 75.5,22.5C 73.8333,22.5 72.1667,22.5 70.5,22.5C 70.5,31.8333 70.5,41.1667 70.5,50.5C 68.8333,50.5 67.1667,50.5 65.5,50.5C 65.5,41.1667 65.5,31.8333 65.5,22.5C 63.8333,22.5 62.1667,22.5 60.5,22.5C 60.5,21.1667 60.5,19.8333 60.5,18.5 Z"/></g>
<g><path style="opacity:0.769" fill="#fefffe" d="M 77.5,18.5 C 81.8333,18.5 86.1667,18.5 90.5,18.5C 90.5,19.8333 90.5,21.1667 90.5,22.5C 87.8333,22.5 85.1667,22.5 82.5,22.5C 82.5,25.8333 82.5,29.1667 82.5,32.5C 84.8333,32.5 87.1667,32.5 89.5,32.5C 89.5,33.8333 89.5,35.1667 89.5,36.5C 87.1667,36.5 84.8333,36.5 82.5,36.5C 82.5,39.8333 82.5,43.1667 82.5,46.5C 85.1667,46.5 87.8333,46.5 90.5,46.5C 90.5,47.8333 90.5,49.1667 90.5,50.5C 86.1667,50.5 81.8333,50.5 77.5,50.5C 77.5,39.8333 77.5,29.1667 77.5,18.5 Z"/></g>
<g><path style="opacity:0.732" fill="#fefffe" d="M 92.5,18.5 C 94.5,18.5 96.5,18.5 98.5,18.5C 99.4281,22.3621 100.928,26.0288 103,29.5C 103.499,25.8484 103.665,22.1817 103.5,18.5C 105.5,18.5 107.5,18.5 109.5,18.5C 109.5,29.1667 109.5,39.8333 109.5,50.5C 107.5,50.5 105.5,50.5 103.5,50.5C 103.665,47.1501 103.498,43.8168 103,40.5C 100.806,37.4456 99.1395,34.1122 98,30.5C 97.5004,37.1583 97.3337,43.825 97.5,50.5C 95.8333,50.5 94.1667,50.5 92.5,50.5C 92.5,39.8333 92.5,29.1667 92.5,18.5 Z"/></g>
<g><path style="opacity:0.765" fill="#fefffe" d="M 113.5,18.5 C 117.514,18.3345 121.514,18.5012 125.5,19C 126.46,22.73 126.793,26.5633 126.5,30.5C 125.167,30.5 123.833,30.5 122.5,30.5C 122.5,28.1667 122.5,25.8333 122.5,23.5C 120.5,23.5 118.5,23.5 116.5,23.5C 116.338,25.5273 116.505,27.5273 117,29.5C 120.362,31.35 123.362,33.6833 126,36.5C 126.828,40.8713 126.661,45.2047 125.5,49.5C 113.72,53.7178 109.053,49.7178 111.5,37.5C 113.167,37.5 114.833,37.5 116.5,37.5C 116.5,40.1667 116.5,42.8333 116.5,45.5C 118.5,45.5 120.5,45.5 122.5,45.5C 122.663,43.1432 122.497,40.8098 122,38.5C 118.39,36.556 115.057,34.2226 112,31.5C 110.978,26.8711 111.478,22.5377 113.5,18.5 Z"/></g>
<g><path style="opacity:0.803" fill="#fefffe" d="M 130.5,18.5 C 134.5,18.5 138.5,18.5 142.5,18.5C 142.5,19.8333 142.5,21.1667 142.5,22.5C 140.167,22.5 137.833,22.5 135.5,22.5C 135.5,25.8333 135.5,29.1667 135.5,32.5C 137.833,32.5 140.167,32.5 142.5,32.5C 142.5,33.8333 142.5,35.1667 142.5,36.5C 140.167,36.5 137.833,36.5 135.5,36.5C 135.5,39.8333 135.5,43.1667 135.5,46.5C 137.833,46.5 140.167,46.5 142.5,46.5C 142.5,47.8333 142.5,49.1667 142.5,50.5C 138.5,50.5 134.5,50.5 130.5,50.5C 130.5,39.8333 130.5,29.1667 130.5,18.5 Z"/></g>
<g><path style="opacity:0.736" fill="#fefffe" d="M 143.5,18.5 C 148.167,18.5 152.833,18.5 157.5,18.5C 157.5,19.8333 157.5,21.1667 157.5,22.5C 156.167,22.5 154.833,22.5 153.5,22.5C 153.5,31.8333 153.5,41.1667 153.5,50.5C 151.833,50.5 150.167,50.5 148.5,50.5C 148.5,41.1667 148.5,31.8333 148.5,22.5C 146.833,22.5 145.167,22.5 143.5,22.5C 143.5,21.1667 143.5,19.8333 143.5,18.5 Z"/></g>
<g><path style="opacity:0.614" fill="#d500a1" d="M 30.5,74.5 C 28.8333,74.5 27.1667,74.5 25.5,74.5C 20.6576,69.491 15.9909,64.3243 11.5,59C 11.9304,57.5659 12.7638,56.3992 14,55.5C 14.3333,50.1667 14.6667,44.8333 15,39.5C 16,38.8333 17,38.1667 18,37.5C 17.75,43.758 17.4167,50.0913 17,56.5C 16.1667,57.3333 15.3333,58.1667 14.5,59C 18.7113,63.5471 23.2113,67.7138 28,71.5C 33.6674,67.8653 37.6674,63.1986 40,57.5C 39.3333,56.8333 38.6667,56.1667 38,55.5C 37.3333,49.5 37.3333,43.5 38,37.5C 38.6667,38.1667 39.3333,38.8333 40,39.5C 40.3333,44.5 40.6667,49.5 41,54.5C 43.3028,56.3382 43.9694,58.6715 43,61.5C 38.6298,65.7022 34.4632,70.0355 30.5,74.5 Z"/></g>
<g><path style="opacity:0.588" fill="#d500a1" d="M 65.5,52.5 C 66.5,52.5 67.5,52.5 68.5,52.5C 68.5059,69.7825 69.1725,69.7825 70.5,52.5C 71.9705,53.3805 72.8038,54.7139 73,56.5C 73.2189,55.062 73.7189,53.7287 74.5,52.5C 75.8333,57.1667 75.8333,61.8333 74.5,66.5C 73.1936,65.0878 72.3603,63.4211 72,61.5C 71.5065,63.1341 71.3398,64.8008 71.5,66.5C 69.5,66.5 67.5,66.5 65.5,66.5C 65.5,61.8333 65.5,57.1667 65.5,52.5 Z"/></g>
<g><path style="opacity:0.547" fill="#d500a1" d="M 78.5,52.5 C 81.0685,52.5943 82.5685,53.9276 83,56.5C 83.49,55.2068 83.6567,53.8734 83.5,52.5C 85.3307,53.0522 86.9974,53.0522 88.5,52.5C 89.8333,56.8333 89.8333,61.1667 88.5,65.5C 85.2362,67.2405 83.4028,66.2405 83,62.5C 82.3873,66.3177 80.3873,67.3177 77,65.5C 76.0024,60.8564 76.5024,56.5231 78.5,52.5 Z M 79.5,55.5 C 80.404,56.209 80.7373,57.209 80.5,58.5C 81.5,58.5 82.5,58.5 83.5,58.5C 83.5,59.5 83.5,60.5 83.5,61.5C 81.8762,61.3601 80.7096,62.0267 80,63.5C 79.5026,60.854 79.3359,58.1873 79.5,55.5 Z"/></g>
<g><path style="opacity:0.589" fill="#d500a1" d="M 90.5,52.5 C 95.5408,52.3527 97.2074,54.5194 95.5,59C 96.1258,59.7504 96.6258,60.5838 97,61.5C 97.5022,58.4869 98.0022,55.4869 98.5,52.5C 99.5,52.5 100.5,52.5 101.5,52.5C 102.167,57.1667 102.833,61.8333 103.5,66.5C 102.5,66.5 101.5,66.5 100.5,66.5C 100.167,62.5 99.8333,62.5 99.5,66.5C 97.8762,66.6399 96.7096,65.9733 96,64.5C 94.5557,66.1554 92.7224,66.822 90.5,66.5C 90.5,61.8333 90.5,57.1667 90.5,52.5 Z"/></g>
<g><path style="opacity:0.571" fill="#d500a1" d="M 102.5,52.5 C 105.952,52.8197 109.285,52.8197 112.5,52.5C 113.478,52.9767 114.311,53.6433 115,54.5C 116.418,52.6368 118.251,52.1368 120.5,53C 121.894,53.956 122.561,55.2894 122.5,57C 121.485,60.1443 121.485,63.3109 122.5,66.5C 121.5,66.5 120.5,66.5 119.5,66.5C 119.167,61.1667 118.833,61.1667 118.5,66.5C 115.723,66.2137 112.889,65.8803 110,65.5C 108.68,52.4753 107.847,52.8087 107.5,66.5C 106.5,66.5 105.5,66.5 104.5,66.5C 104.768,61.6529 104.102,56.9862 102.5,52.5 Z"/></g>
</svg>
