<?xml version="1.0" encoding="UTF-8"?>
<svg class="chakra-icon css-125d9c3" focusable="false" viewBox="0 0 137 24" xmlns="http://www.w3.org/2000/svg">
<path d="m4.0039 3.6761 6.3688-3.6761 6.3688 3.6761-2.3415 1.358-4.0273-2.318-4.0273 2.318-2.3415-1.358zm12.738 4.6361-2.3415-1.358-4.0273 2.318-4.0273-2.318-2.3415 1.358v2.7161l4.0273 2.318v4.6361l2.3415 1.3581 2.3415-1.3581v-4.6361l4.0273-2.318v-2.7161zm0 7.3522v-2.7161l-2.3415 1.358v2.7161l2.3415-1.358zm1.6624 0.96-4.0273 2.318v2.7161l6.3688-3.6761v-7.3522l-2.3415 1.3581v4.6361zm-2.3414-10.63 2.3414 1.358v2.7161l2.3415-1.3581v-2.7161l-2.3415-1.358-2.3414 1.358zm-8.0313 13.932v2.7161l2.3415 1.358 2.3415-1.358v-2.7161l-2.3415 1.358-2.3415-1.358zm-4.0273-4.2615 2.3415 1.358v-2.7161l-2.3415-1.358v2.7161zm4.0273-9.6702 2.3415 1.358 2.3415-1.358-2.3415-1.358-2.3415 1.358zm-5.6898 1.358 2.3415-1.358-2.3415-1.358-2.3415 1.358v2.7161l2.3415 1.3581v-2.7161zm0 4.6361-2.3415-1.3581v7.3522l6.3688 3.6761v-2.7161l-4.0273-2.318v-4.6361z" fill="#F0B90B"/>
<path d="m39.205 15.062v-0.0382c0-1.7936-0.9541-2.6904-2.4996-3.2819 0.954-0.5342 1.7554-1.3738 1.7554-2.8812v-0.03816c0-2.0989-1.6791-3.4537-4.4077-3.4537h-6.2013v13.357h6.354c3.0148 0 4.9992-1.2212 4.9992-3.6636zm-3.6636-5.7052c0 0.9922-0.8204 1.412-2.1179 1.412h-2.7095v-2.824h2.9003c1.2402 0 1.9271 0.49611 1.9271 1.3738v0.03817zm0.7442 5.3427c0 0.9922-0.7823 1.4501-2.0798 1.4501h-3.4918v-2.9384h3.3964c1.5074 0 2.1752 0.5533 2.1752 1.4501v0.0382z" fill="#F0B90B"/>
<path d="m53.681 18.725v-13.357h-2.9004v8.2239l-6.2585-8.2239h-2.7095v13.357h2.9003v-8.4911l6.4684 8.4911h2.4997z" fill="#F0B90B"/>
<path d="m68.432 15.062v-0.0382c0-1.7936-0.9541-2.6904-2.4996-3.2819 0.954-0.5342 1.7554-1.3738 1.7554-2.8812v-0.03816c0-2.0989-1.6791-3.4537-4.4077-3.4537h-6.2013v13.357h6.354c3.0148 0 4.9992-1.2212 4.9992-3.6636zm-3.6635-5.7052c0 0.9922-0.8205 1.412-2.118 1.412h-2.7095v-2.824h2.9003c1.2402 0 1.9272 0.49611 1.9272 1.3738v0.03817zm0.7441 5.3427c0 0.9922-0.7823 1.4501-2.0798 1.4501h-3.4918v-2.9384h3.3964c1.5074 0 2.1752 0.5533 2.1752 1.4501v0.0382z" fill="#F0B90B"/>
<path d="m86.141 16.366-1.5074-1.5264c-1.1449 1.0685-2.1943 1.7363-3.8353 1.7363-2.5569 0-4.4077-2.137-4.4077-4.7702 0-2.6332 1.8508-4.7321 4.4077-4.7321 1.5265 0 2.6713 0.66784 3.7399 1.66l1.5074-1.7364c-1.2785-1.2212-2.7668-2.0798-5.2282-2.0798-4.0452 0-6.8883 3.1102-6.8883 6.9264 0 3.8543 2.9004 6.8882 6.7929 6.8882 2.4996 0 4.0261-0.9159 5.419-2.3661z" fill="#F0B90B"/>
<path d="m97.519 12.874v5.6289h2.347v-13.357h-2.347v5.5526h-6.373v-5.5526h-2.347v13.357h2.347v-5.6289h6.373z" fill="#F0B90B"/>
<path d="m110.39 5.0506h-2.175l-5.877 13.452h2.404l1.374-3.2247h6.316l1.355 3.2247h2.48l-5.877-13.452zm1.183 8.1476h-4.598l2.289-5.3427 2.309 5.3427z" fill="#F0B90B"/>
<path d="m118.89 5.146v13.357h2.347v-13.357h-2.347z" fill="#F0B90B"/>
<path d="m134.33 14.381-7.156-9.2352h-2.175v13.357h2.309v-9.5023l7.365 9.5023h1.966v-13.357h-2.309v9.2352z" fill="#F0B90B"/>
</svg>
