<svg width="175" height="23" viewBox="0 0 175 23" fill="none" xmlns="http://www.w3.org/2000/svg" id="svg288874154_5583">
<path fill-rule="evenodd" clip-rule="evenodd" d="M3.78924 0.927734C1.71443 0.927734 0.0324707 2.6097 0.0324707 4.6845V18.3466C0.0324707 20.4214 1.71443 22.1034 3.78924 22.1034H24.5099C26.5847 22.1034 28.2667 20.4214 28.2667 18.3466V4.6845C28.2667 2.6097 26.5847 0.927734 24.5099 0.927734H3.78924ZM14.12 11.2146C16.1144 11.2146 17.9667 10.6066 19.5017 9.56571C19.5704 9.9124 19.6064 10.2709 19.6064 10.6377C19.6064 13.6678 17.1501 16.1241 14.12 16.1241C11.09 16.1241 8.63362 13.6678 8.63362 10.6377C8.63362 10.2709 8.66963 9.9124 8.7383 9.56571C10.2733 10.6066 12.1257 11.2146 14.12 11.2146Z" fill="#0026F5"></path>
<path fill="white" d="M43.0584 4.87978C41.047 4.72798 40.0413 5.53442 40.0413 7.29909V7.44141H43.0584V10.9708H40.0413V21.6727H36.3697V10.9708H34.3204V7.44141H36.3697V7.29909C36.3697 5.28774 36.9294 3.76025 38.049 2.71662C39.1685 1.673 40.8383 1.21759 43.0584 1.35042V4.87978Z"></path>
<path fill="white" d="M55.655 7.44141H59.3267V21.6727H55.655V19.9934C54.5545 21.3786 53.008 22.0712 51.0156 22.0712C49.1181 22.0712 47.4863 21.3501 46.1201 19.908C44.7728 18.4469 44.0992 16.6633 44.0992 14.557C44.0992 12.4508 44.7728 10.6766 46.1201 9.23455C47.4863 7.77347 49.1181 7.04293 51.0156 7.04293C53.008 7.04293 54.5545 7.73552 55.655 9.1207V7.44141ZM48.8809 17.4602C49.621 18.2003 50.5602 18.5703 51.6987 18.5703C52.8372 18.5703 53.7765 18.2003 54.5165 17.4602C55.2755 16.7012 55.655 15.7335 55.655 14.557C55.655 13.3806 55.2755 12.4224 54.5165 11.6823C53.7765 10.9233 52.8372 10.5438 51.6987 10.5438C50.5602 10.5438 49.621 10.9233 48.8809 11.6823C48.1409 12.4224 47.7709 13.3806 47.7709 14.557C47.7709 15.7335 48.1409 16.7012 48.8809 17.4602Z"></path>
<path fill="white" d="M68.3867 22.0712C66.2425 22.0712 64.4494 21.3501 63.0073 19.908C61.5841 18.4659 60.8726 16.6822 60.8726 14.557C60.8726 12.4318 61.5841 10.6482 63.0073 9.20608C64.4494 7.76398 66.2425 7.04293 68.3867 7.04293C69.7719 7.04293 71.0337 7.37499 72.1722 8.03912C73.3107 8.70325 74.1741 9.59507 74.7623 10.7146L71.6029 12.5647C71.3183 11.9764 70.8819 11.5116 70.2937 11.17C69.7244 10.8284 69.0793 10.6577 68.3582 10.6577C67.2577 10.6577 66.3469 11.0277 65.6258 11.7677C64.9048 12.4888 64.5442 13.4185 64.5442 14.557C64.5442 15.6766 64.9048 16.6063 65.6258 17.3464C66.3469 18.0674 67.2577 18.428 68.3582 18.428C69.0982 18.428 69.7529 18.2667 70.3221 17.9441C70.9104 17.6025 71.3468 17.1376 71.6314 16.5494L75.2366 18.371C74.6105 19.4906 73.3107 20.3919 72.1722 21.075C71.0337 21.7391 69.7719 22.0712 68.3867 22.0712Z"></path>
<path fill="white" d="M80.0586 16.0656C80.5519 17.8492 81.8897 18.741 84.0718 18.741C85.476 18.741 86.5386 18.2667 87.2596 17.3179L90.2197 19.0257C88.8156 21.056 86.7473 22.0712 84.0149 22.0712C81.662 22.0712 79.774 21.3596 78.3508 19.9365C76.9277 18.5133 76.2161 16.7202 76.2161 14.557C76.2161 12.4129 76.9182 10.6292 78.3224 9.20608C79.7265 7.76398 81.5292 7.04293 83.7303 7.04293C85.8175 7.04293 87.5347 7.76398 88.882 9.20608C90.2482 10.6482 90.9313 12.4318 90.9313 14.557C90.9313 15.0314 90.8838 15.5343 90.789 16.0656H80.0586ZM80.0017 13.2193H87.2596C87.0509 12.2516 86.6145 11.5305 85.9503 11.0562C85.3052 10.5818 84.5652 10.3446 83.7303 10.3446C82.7436 10.3446 81.9276 10.6007 81.2825 11.1131C80.6373 11.6064 80.2104 12.3085 80.0017 13.2193Z"></path>
<path fill="white" d="M113.504 7.44141H117.403L112.878 21.6727H109.377L106.758 13.0485L104.14 21.6727H100.639L96.1133 7.44141H100.013L102.432 16.1794L105.022 7.44141H108.494L111.085 16.2079L113.504 7.44141Z"></path>
<path fill="white" d="M130.06 7.44141H133.731V21.6727H130.06V19.9934C128.959 21.3786 127.413 22.0712 125.42 22.0712C123.523 22.0712 121.891 21.3501 120.525 19.908C119.177 18.4469 118.504 16.6633 118.504 14.557C118.504 12.4508 119.177 10.6766 120.525 9.23455C121.891 7.77347 123.523 7.04293 125.42 7.04293C127.413 7.04293 128.959 7.73552 130.06 9.1207V7.44141ZM123.285 17.4602C124.026 18.2003 124.965 18.5703 126.103 18.5703C127.242 18.5703 128.181 18.2003 128.921 17.4602C129.68 16.7012 130.06 15.7335 130.06 14.557C130.06 13.3806 129.68 12.4224 128.921 11.6823C128.181 10.9233 127.242 10.5438 126.103 10.5438C124.965 10.5438 124.026 10.9233 123.285 11.6823C122.545 12.4224 122.175 13.3806 122.175 14.557C122.175 15.7335 122.545 16.7012 123.285 17.4602Z"></path>
<path fill="white" d="M136.643 21.6727V0.89502H140.315V21.6727H136.643Z"></path>
<path fill="white" d="M143.467 21.6727V0.89502H147.138V21.6727H143.467Z"></path>
<path fill="white" d="M153.81 16.0656C154.304 17.8492 155.641 18.741 157.823 18.741C159.228 18.741 160.29 18.2667 161.011 17.3179L163.971 19.0257C162.567 21.056 160.499 22.0712 157.766 22.0712C155.414 22.0712 153.526 21.3596 152.102 19.9365C150.679 18.5133 149.968 16.7202 149.968 14.557C149.968 12.4129 150.67 10.6292 152.074 9.20608C153.478 7.76398 155.281 7.04293 157.482 7.04293C159.569 7.04293 161.286 7.76398 162.634 9.20608C164 10.6482 164.683 12.4318 164.683 14.557C164.683 15.0314 164.635 15.5343 164.541 16.0656H153.81ZM153.753 13.2193H161.011C160.802 12.2516 160.366 11.5305 159.702 11.0562C159.057 10.5818 158.317 10.3446 157.482 10.3446C156.495 10.3446 155.679 10.6007 155.034 11.1131C154.389 11.6064 153.962 12.3085 153.753 13.2193Z"></path>
<path fill="white" d="M174.969 10.9708H171.753V16.891C171.753 17.3843 171.877 17.7449 172.123 17.9726C172.37 18.2003 172.73 18.3331 173.205 18.371C173.679 18.39 174.267 18.3805 174.969 18.3426V21.6727C172.446 21.9573 170.662 21.7201 169.618 20.9611C168.594 20.2021 168.082 18.8454 168.082 16.891V10.9708H165.605V7.44141H168.082V4.56669L171.753 3.45665V7.44141H174.969V10.9708Z"></path>
</svg>