<?xml version="1.0" encoding="UTF-8"?>
<svg class="navbar-logo__svg" viewBox="0 0 136.61 30.943" xmlns="http://www.w3.org/2000/svg">
<title>MintDAO logo</title>
<defs>
<linearGradient id="a" x1=".5" x2=".5" y1="-.002" y2=".982">
<stop stop-color="#66cc9a" offset="0"/>
<stop stop-color="#339a99" offset="1"/>
</linearGradient>
</defs>
<g transform="translate(196.04 -3981.2)">
<path d="m-164.08 3982.4-1.606-1.163-1.606 1.163a21.672 21.672 0 0 0-5.4 6 14.434 14.434 0 0 0-1.226 2.666 16.613 16.613 0 0 1 2.161 2.909 9.686 9.686 0 0 1 1.4 4.793c0 0.227-0.013 0.45-0.032 0.673a9.588 9.588 0 0 1-0.991 3.4 18.463 18.463 0 0 1-5.079 5.957 18.472 18.472 0 0 1-5.07-5.939 9.615 9.615 0 0 1-1-3.385c-0.021-0.234-0.036-0.469-0.036-0.707a9.712 9.712 0 0 1 1.424-4.828 16.652 16.652 0 0 1 2.158-2.894 14.484 14.484 0 0 0-1.228-2.662 21.68 21.68 0 0 0-5.391-5.986l-1.606-1.163-1.606 1.163c-0.3 0.214-7.235 5.319-7.235 12.248a12.171 12.171 0 0 0 1.575 5.784h3.194a10.371 10.371 0 0 1-2.031-5.784c0-5.612 6.1-10.031 6.1-10.031a18.476 18.476 0 0 1 5.07 5.939 13.679 13.679 0 0 0-3.166 8.213 11.2 11.2 0 0 0 0.615 3.6 14.465 14.465 0 0 0 1.228 2.662 21.681 21.681 0 0 0 5.391 5.986l1.606 1.163 1.606-1.163a21.681 21.681 0 0 0 5.4-6 14.431 14.431 0 0 0 1.226-2.666 11.189 11.189 0 0 0 0.609-3.582 13.666 13.666 0 0 0-3.151-8.194 18.46 18.46 0 0 1 5.079-5.957s6.1 4.419 6.1 10.031a10.371 10.371 0 0 1-2.031 5.784h3.194a12.171 12.171 0 0 0 1.575-5.784c0.014-6.927-6.925-12.032-7.22-12.246z" fill="url(#a)" data-name="Path 3488"/>
<g transform="translate(-148.36 3991.3)" fill="#fff" data-name="Group 3">
<path transform="translate(-36.039 -4030.3)" d="M36.039,4030.3H38.2l3.234,5.579,3.235-5.579H46.82v10.781H44.664v-6.469l-2.2,3.773H40.392l-2.2-3.773v6.469H36.039Z" data-name="Path 3489"/>
<path transform="translate(-89.198 -4030.3)" d="m102.94 4038.9h2.158v-6.469h-2.156v-2.156h6.468v2.156h-2.156v6.469h2.156v2.156h-6.468z" data-name="Path 3490"/>
<path transform="translate(-125.68 -4030.3)" d="M156.941,4041.081a2.683,2.683,0,0,1-2.507-1.738l-2.385-6.55a.522.522,0,0,0-.5-.337h-.539v8.625h-2.156V4030.3h2.7a2.72,2.72,0,0,1,2.547,1.833l2.345,6.455a.535.535,0,0,0,.5.337h.539V4030.3h2.156v10.781Z" data-name="Path 3491"/>
<path transform="translate(-178.84 -4030.3)" d="m226.54 4030.3v2.156h-4.312v8.625h-2.156v-8.625h-4.313v-2.156z" data-name="Path 3492"/>
<path transform="translate(-232 -4030.3)" d="M293.442,4038.386a2.7,2.7,0,0,1-2.7,2.7h-8.086V4030.3h8.086a2.7,2.7,0,0,1,2.7,2.7Zm-2.7.539a.541.541,0,0,0,.539-.539V4033a.541.541,0,0,0-.539-.539h-5.93v6.469Z" data-name="Path 3493"/>
<path transform="translate(-285.16 -4030.3)" d="M349.564,4036.85a2.739,2.739,0,0,1,.485-1.55l2.7-3.854a2.693,2.693,0,0,1,2.21-1.146,2.767,2.767,0,0,1,2.21,1.146l2.7,3.854a2.677,2.677,0,0,1,.485,1.55v4.231h-2.156v-2.156H351.72v2.156h-2.156Zm4.959-4.165-2.709,3.855a.686.686,0,0,0-.094.229h6.469a.686.686,0,0,0-.094-.229l-2.709-3.855a.537.537,0,0,0-.431-.229A.519.519,0,0,0,354.523,4032.685Z" data-name="Path 3494"/>
<path transform="translate(-338.31 -4030.3)" d="M427.248,4038.386a2.7,2.7,0,0,1-2.7,2.7h-5.391a2.7,2.7,0,0,1-2.7-2.7V4033a2.7,2.7,0,0,1,2.7-2.7h5.391a2.7,2.7,0,0,1,2.7,2.7Zm-2.7.539a.541.541,0,0,0,.539-.539V4033a.541.541,0,0,0-.539-.539h-5.391a.54.54,0,0,0-.539.539v5.391a.54.54,0,0,0,.539.539Z" data-name="Path 3495"/>
</g>
</g>
</svg>
