<?xml version="1.0" encoding="UTF-8"?>
<!DOCTYPE svg PUBLIC "-//W3C//DTD SVG 1.1//EN" "http://www.w3.org/Graphics/SVG/1.1/DTD/svg11.dtd">
<svg xmlns="http://www.w3.org/2000/svg" version="1.1" width="2191px" height="823px" style="shape-rendering:geometricPrecision; text-rendering:geometricPrecision; image-rendering:optimizeQuality; fill-rule:evenodd; clip-rule:evenodd" xmlns:xlink="http://www.w3.org/1999/xlink">
<g><path style="opacity:0.995" fill="#118028" d="M 13.5,-0.5 C 90.1667,-0.5 166.833,-0.5 243.5,-0.5C 301.956,5.84832 348.122,32.8483 382,80.5C 398.081,105.077 406.747,132.077 408,161.5C 411.023,329.155 412.023,496.822 411,664.5C 410.963,679.577 409.963,694.577 408,709.5C 394.982,740.51 374.149,764.676 345.5,782C 314.47,801.01 280.804,812.01 244.5,815C 167.833,815.667 91.1667,815.667 14.5,815C 7.19081,813.518 2.19081,809.351 -0.5,802.5C -0.5,539.167 -0.5,275.833 -0.5,12.5C 2.23062,6.10342 6.89728,1.77008 13.5,-0.5 Z M 103.5,89.5 C 144.168,89.3333 184.835,89.5 225.5,90C 256.809,92.0164 281.309,105.85 299,131.5C 304.335,140.838 307.668,150.838 309,161.5C 309.667,333.167 309.667,504.833 309,676.5C 306.783,691.752 298.949,703.252 285.5,711C 269.678,719.873 252.678,724.539 234.5,725C 190.167,725.667 145.833,725.667 101.5,725C 99.6667,724.5 98.5,723.333 98,721.5C 97.3333,512.5 97.3333,303.5 98,94.5C 99.1065,91.887 100.94,90.2203 103.5,89.5 Z"/></g>
<g><path style="opacity:0.994" fill="#118028" d="M 447.5,-0.5 C 544.167,-0.5 640.833,-0.5 737.5,-0.5C 768.917,2.47258 795.417,15.4726 817,38.5C 836.915,65.4041 844.082,95.5708 838.5,129C 838.044,174.507 837.211,220.007 836,265.5C 835.47,291.213 834.137,316.879 832,342.5C 826.88,356.559 818.046,367.726 805.5,376C 827.008,388.489 838.174,407.323 839,432.5C 839.333,556.5 839.667,680.5 840,804.5C 840.207,808.089 840.707,811.589 841.5,815C 808.168,815.5 774.835,815.667 741.5,815.5C 740.851,810.864 740.351,806.198 740,801.5C 739.667,683.5 739.333,565.5 739,447.5C 734.985,434.048 725.818,427.215 711.5,427C 651.168,426.5 590.834,426.333 530.5,426.5C 530.5,556.167 530.5,685.833 530.5,815.5C 497.833,815.5 465.167,815.5 432.5,815.5C 432.333,548.166 432.5,280.833 433,13.5C 435.115,5.88286 439.948,1.2162 447.5,-0.5 Z M 537.5,84.5 C 593.834,84.3333 650.168,84.5 706.5,85C 725.963,85.9638 736.297,96.1304 737.5,115.5C 736.572,156.491 735.738,197.491 735,238.5C 734.522,269.873 733.189,301.206 731,332.5C 730.667,334.167 730.333,335.833 730,337.5C 722.698,344.715 713.864,348.215 703.5,348C 645.834,348.5 588.168,348.667 530.5,348.5C 530.333,262.499 530.5,176.499 531,90.5C 531.796,86.8656 533.963,84.8656 537.5,84.5 Z"/></g>
<g><path style="opacity:0.993" fill="#118028" d="M 1020.5,-0.5 C 1062.5,-0.5 1104.5,-0.5 1146.5,-0.5C 1205.13,4.03736 1251.97,29.704 1287,76.5C 1292.44,84.3804 1297.11,92.7137 1301,101.5C 1303.68,129.761 1305.01,158.095 1305,186.5C 1306.08,345.515 1305.08,504.515 1302,663.5C 1290.39,741.871 1246.22,791.038 1169.5,811C 1160.57,812.8 1151.57,814.133 1142.5,815C 1103.17,815.667 1063.83,815.667 1024.5,815C 956.597,808.833 907.764,775.333 878,714.5C 871.165,698.495 866.832,681.828 865,664.5C 861.834,502.851 860.834,341.184 862,179.5C 861.968,153.419 863.302,127.419 866,101.5C 893.417,47.1224 937.251,14.2891 997.5,3C 1005.3,1.76743 1012.97,0.600758 1020.5,-0.5 Z M 1039.5,89.5 C 1068.84,89.3334 1098.17,89.5 1127.5,90C 1157.8,90.0698 1182.63,101.57 1202,124.5C 1205.17,128.841 1207.84,133.508 1210,138.5C 1211.49,180.813 1212.33,223.146 1212.5,265.5C 1211.9,395.84 1210.74,526.173 1209,656.5C 1204.05,686.453 1187.55,707.286 1159.5,719C 1153.29,721.136 1146.96,722.802 1140.5,724C 1105.19,725.612 1069.86,725.945 1034.5,725C 1000.01,722.151 975.843,704.984 962,673.5C 960.353,668.246 959.02,662.913 958,657.5C 956.143,529.009 954.976,400.509 954.5,272C 954.303,227.138 955.136,182.305 957,137.5C 968.688,115.557 986.521,101.057 1010.5,94C 1020.2,91.7821 1029.87,90.2821 1039.5,89.5 Z"/></g>
<g><path style="opacity:0.994" fill="#117f28" d="M 1394.5,-0.5 C 1406.17,-0.5 1417.83,-0.5 1429.5,-0.5C 1453.3,2.6515 1473.13,13.3182 1489,31.5C 1490.59,33.6705 1491.92,36.0038 1493,38.5C 1553.21,215.319 1611.87,392.652 1669,570.5C 1672.73,573.572 1676.9,574.239 1681.5,572.5C 1682.58,571.335 1683.42,570.002 1684,568.5C 1684.5,378.834 1684.67,189.167 1684.5,-0.5C 1716.5,-0.5 1748.5,-0.5 1780.5,-0.5C 1780.67,254.5 1780.5,509.5 1780,764.5C 1774.89,796.778 1756.39,816.112 1724.5,822.5C 1714.5,822.5 1704.5,822.5 1694.5,822.5C 1681.36,820.505 1669.02,816.005 1657.5,809C 1647.38,800.274 1639.54,789.774 1634,777.5C 1568.48,590.281 1504.15,402.615 1441,214.5C 1435.61,205.884 1429.95,205.55 1424,213.5C 1423.5,414.166 1423.33,614.833 1423.5,815.5C 1391.17,815.5 1358.83,815.5 1326.5,815.5C 1326.33,565.166 1326.5,314.833 1327,64.5C 1329.65,36.8827 1343.48,17.3827 1368.5,6C 1377.14,3.17319 1385.81,1.00652 1394.5,-0.5 Z"/></g>
<g><path style="opacity:0.991" fill="#108028" d="M 1812.5,-0.5 C 1938.5,-0.5 2064.5,-0.5 2190.5,-0.5C 2190.5,27.1667 2190.5,54.8333 2190.5,82.5C 2124.7,83.0298 2059.03,83.0298 1993.5,82.5C 1963.77,82.3448 1934.11,82.8448 1904.5,84C 1903.11,85.1711 1902.27,86.6711 1902,88.5C 1901.5,173.499 1901.33,258.499 1901.5,343.5C 1995.54,343.413 2089.54,343.08 2183.5,342.5C 2183.5,368.5 2183.5,394.5 2183.5,420.5C 2089.5,420.5 1995.5,420.5 1901.5,420.5C 1901.01,523.557 1901.51,626.557 1903,729.5C 1903.9,730.701 1905.07,731.535 1906.5,732C 2001.3,732.07 2095.97,732.237 2190.5,732.5C 2190.5,760.167 2190.5,787.833 2190.5,815.5C 2064.5,815.667 1938.5,815.5 1812.5,815C 1806.35,810.877 1803.19,805.043 1803,797.5C 1802.33,535.5 1802.33,273.5 1803,11.5C 1804.89,6.44706 1808.06,2.44706 1812.5,-0.5 Z"/></g>
</svg>
